<svg xmlns="http://www.w3.org/2000/svg" width="140" height="65" viewBox="0 0 422 192" fill="none" data-fc-idx="0"> <g clip-path="url(#clip0_3964_18534)" style="fill: none !important;"> <path fill-rule="evenodd" clip-rule="evenodd" d="M223.8 132.3C225.9 115.2 243.4 102.6 258.4 97.7001C256.5 97.3001 254.5 96.4001 252.5 96.2001C244.8 99.1001 237.7 104.1 231 109.2C232.6 106.9 234.5 104.5 236 102.2L230.3 104C227.4 107.8 224.4 111.8 221.8 115.5C221.7 112.1 221.9 108.9 222.3 105.7C221.1 106 219.6 105.8 218.4 106.2L218.2 110.6C217.7 116.4 217.1 122.4 212.5 126.3L210.2 123.9C204.5 118.6 204.8 110.7 204.4 103.2L200.7 101.4L200.8 109.1C200.8 110.9 201.1 113.6 200.4 115.5C196.8 110.3 194.7 104.1 194.2 97.6001L190.8 94.4001C190.7 96.5001 191.4 99.4001 189.9 100.8C185.3 96.0001 182.8 90.3001 181.5 84.1001L178.9 84.8001C181.1 92.9001 184 101.8 192.1 106.6L193.9 111.4C195.9 120.5 204.3 126.9 204.3 136.8C204.3 138.6 204.3 140.5 204.3 142.4C210.4 145.2 216.7 147.6 223.3 147.6V137.6L223.8 132.3Z" class="svg-logo-text" style="fill: rgb(27, 92, 52) !important;"/> <path d="M300.9 7.60002C302.6 10.3 303.5 13.4 304.2 16.5C307 16.1 310.5 15.6 313.5 16.3C318.4 17.4 323.8 20.2 326 25.2C331.9 24.3 338.4 25.2 341.6 30.6C343.9 35 342.2 40.7 340.4 44.8C344.9 50 344.6 58.4 342.2 64.5C336.3 78.3 321.6 85.2 307.4 85.9C303.6 86.2 299.4 85.4 295.5 84.9C291.1 88.8 284.5 90.4 279 88.3C277 91.8 274.5 96.5 270.1 97.6C264 99.4 257.3 97.8 251.9 95.9C238.4 101.3 224.3 109.2 208.5 104.5C199.7 101.8 189.4 96.3 186.3 86.8L184.7 83.1C172 87.4 155.7 86.6 146.3 75.8C138.3 66.4 132.8 52.3 139.4 40.5C147.2 26.9 161.4 18.9 176.2 17.1C184.5 16.1 192.9 17.4 199.4 21.9C205 16.3 211 10.8 219.3 12.8C222.3 13.7 225.1 15.3 227.6 17.4C231.9 13.1 237.8 11.4 243.9 12.5C247.1 8.60002 251.2 4.60002 255.9 3.10002C260.5 1.30002 266 2.70002 269.9 5.20002C276.8 0.700021 286.3 -2.49998 294.4 1.40002C297.1 2.90002 299.4 5.30002 300.9 7.60002Z" fill="#38AC4B" style="fill: rgb(56, 172, 75) !important;"/> <path d="M412.501 149.4C407.801 149.4 403.801 153 403.801 157.9C403.801 162.8 407.801 166.5 412.501 166.5C417.201 166.5 421.101 162.9 421.101 157.9C421.101 152.9 417.101 149.4 412.501 149.4ZM412.501 165.1C408.601 165.1 405.501 162.1 405.501 158C405.501 153.9 408.601 150.9 412.501 150.9C416.401 150.9 419.401 154 419.401 158C419.401 162 416.301 165.1 412.501 165.1Z" class="svg-logo-text" style="fill: rgb(27, 92, 52) !important;"/> <path d="M416.399 155.8C416.399 153.9 415.299 153 412.899 153H409.199V162.9H410.699V158.6H412.399L414.999 162.9H416.699L413.899 158.5C415.299 158.4 416.399 157.6 416.399 155.8ZM410.699 157.4V154.3H412.699C413.699 154.3 414.799 154.5 414.799 155.7C414.799 157.2 413.699 157.3 412.399 157.3H410.699V157.4Z" class="svg-logo-text" style="fill: rgb(27, 92, 52) !important;"/> <path d="M1.00078 167.2V141.9H4.40078C6.70078 148.7 9.90078 154 14.0008 157.9C18.1008 161.8 22.6008 163.7 27.5008 163.7C30.0008 163.7 32.0008 163.1 33.5008 161.8C35.0008 160.5 35.7008 158.9 35.7008 156.8C35.7008 154.6 35.0008 152.8 33.5008 151.4C32.0008 150 28.6008 148 23.0008 145.5C14.8008 141.8 9.00078 138 5.70078 134.3C2.40078 130.6 0.800781 126.1 0.800781 120.9C0.800781 115 2.70078 110.3 6.50078 106.8C10.3008 103.3 15.3008 101.5 21.7008 101.5C25.9008 101.5 30.1008 102.4 34.5008 104.3C38.9008 106.2 41.2008 107.1 41.6008 107.1C42.5008 107.1 43.3008 106.7 43.9008 106C44.5008 105.3 45.0008 104.1 45.4008 102.6H48.8008V125H45.4008C43.4008 119.2 40.4008 114.5 36.4008 111C32.4008 107.5 28.0008 105.7 23.3008 105.7C21.1008 105.7 19.4008 106.2 18.2008 107.3C17.0008 108.3 16.3008 109.7 16.3008 111.5C16.3008 113.4 17.1008 115.2 18.7008 116.8C20.3008 118.4 22.7008 120 26.1008 121.5C27.0008 121.9 28.3008 122.5 30.0008 123.3C37.8008 127 42.9008 129.8 45.2008 131.8C47.9008 134 49.8008 136.4 51.0008 138.9C52.2008 141.4 52.8008 144.3 52.8008 147.7C52.8008 153.9 50.9008 158.8 47.2008 162.6C43.5008 166.4 38.5008 168.2 32.3008 168.2C27.1008 168.2 21.8008 167.1 16.7008 164.9C11.6008 162.7 8.80078 161.6 8.60078 161.6C7.50078 161.6 6.60078 162.1 5.90078 163C5.20078 164 4.80078 165.3 4.70078 167L1.00078 167.2Z" class="svg-logo-text" style="fill: rgb(27, 92, 52) !important;"/> <path d="M49.1992 167.2V164.2H49.9992C51.4992 164.2 52.7992 163.8 53.6992 162.9C54.5992 162 55.4992 160.4 56.1992 158.1L71.2992 113.7H79.9992L96.2992 159.9C96.9992 161.8 97.6992 163 98.3992 163.5C99.0992 164 100.299 164.3 101.899 164.3H102.799V167.3H74.4992V164.3H76.6992C77.9992 164.3 78.8992 164.2 79.2992 163.8C79.6992 163.5 79.9992 163 79.9992 162.2C79.9992 162 79.8992 161.6 79.8992 161.2C79.7992 160.8 79.6992 160.3 79.4992 159.8L77.5992 154H61.2992C60.8992 155.3 60.5992 156.4 60.3992 157.2C60.1992 158.1 60.0992 158.8 60.0992 159.4C60.0992 161 60.4992 162.2 61.2992 162.9C62.0992 163.6 63.1992 164.1 64.7992 164.1H65.5992V167.1L49.1992 167.2ZM62.7992 149.4H75.8992L69.2992 129.6L62.7992 149.4Z" class="svg-logo-text" style="fill: rgb(27, 92, 52) !important;"/> <path d="M110.6 167.2L95.1004 122.1C94.3004 119.6 93.5004 118.1 92.7004 117.4C91.9004 116.8 90.7004 116.5 89.0004 116.5H87.9004V113.7H116V116.5H114.4C113.2 116.5 112.5 116.7 112 117C111.5 117.3 111.4 117.9 111.4 118.7C111.4 119.1 111.4 119.5 111.5 119.9C111.6 120.2 111.6 120.6 111.7 120.8L122.3 152.8L130.9 127.5C131.3 126.2 131.7 125 131.9 123.9C132.1 122.8 132.3 121.9 132.3 121.2C132.3 119.7 131.9 118.6 131 117.8C130.1 117 129 116.6 127.4 116.6H126.8V113.8H144.3V116.6H143.9C141.8 116.6 140.1 117.4 138.7 118.8C137.3 120.3 136 123.1 134.5 127.3L120.7 167.3L110.6 167.2Z" class="svg-logo-text" style="fill: rgb(27, 92, 52) !important;"/> <path d="M128.4 167.2V164.1H129.3C131.2 164.1 132.7 163.6 133.8 162.5C134.9 161.4 135.9 159.5 136.9 156.7L155.2 102.6H165.8L185.7 158.8C186.5 161.1 187.3 162.5 188.2 163.1C189.1 163.7 190.5 164 192.5 164H193.6V167.1H159.1V164H161.8C163.4 164 164.4 163.8 165 163.4C165.5 163 165.8 162.4 165.8 161.5C165.8 161.2 165.7 160.8 165.6 160.3C165.5 159.8 165.3 159.2 165.2 158.7L162.8 151.2H143C142.5 152.8 142.1 154.6 141.9 155.6C141.7 156.6 141.6 157.5 141.6 158.3C141.6 160.2 142.1 161.6 143 162.6C143.9 163.6 145.4 164 147.2 164H148.1V167.1L128.4 167.2ZM144.9 145.7H160.9L152.8 121.9L144.9 145.7Z" class="svg-logo-text" style="fill: rgb(27, 92, 52) !important;"/> <path d="M271.5 113.7C277.1 113.7 281.3 114.7 283.9 116.6C286.5 118.5 287.9 121.5 287.9 125.6C287.9 129 286.7 131.8 284.4 133.9C282.1 136 278.6 137.5 273.9 138.3C277.6 139.2 280.2 140.3 281.7 141.7C283.2 143.1 284.2 145.3 284.7 148.1C284.9 149.3 285 151.3 285.1 154.2C285.1 155.1 285.1 155.7 285.1 156.2C285.2 158.8 285.4 160.5 285.9 161.3C286.4 162.2 287.2 162.6 288.3 162.6C289.3 162.6 290.1 162.1 290.6 161C291.1 160 291.4 158.4 291.4 156.4V155.7H293.9V156.6C293.9 160.7 293 163.6 291.1 165.2C289.2 166.8 286 167.7 281.3 167.7C276.6 167.7 273.3 166.6 271.4 164.3C269.5 162 268.5 157.8 268.5 151.6C268.4 146.3 267.7 142.9 266.4 141.5C265.1 140.1 262.4 139.3 258.3 139.3H257.5V159C257.5 161.2 257.7 162.6 258.1 163.2C258.5 163.8 259.4 164.1 260.7 164.1H262.4V167.1H235.9V164.1H238C239.3 164.1 240.2 163.8 240.6 163.2C241 162.6 241.2 161.2 241.2 159V121.4C241.2 119.2 241 117.8 240.6 117.2C240.2 116.6 239.3 116.3 238 116.3H235.9V113.5L271.5 113.7ZM257.5 136.4H261.7C264.7 136.4 266.8 135.7 267.9 134.3C269 132.9 269.6 130.5 269.6 126.9C269.6 122.9 269 120.1 267.9 118.6C266.8 117.1 264.7 116.3 261.8 116.3C260.1 116.3 259 116.6 258.4 117.1C257.8 117.6 257.5 119 257.5 121.3V136.4Z" class="svg-logo-text" style="fill: rgb(27, 92, 52) !important;"/> <path d="M297 167.2V164.3H299C300.2 164.3 301.1 164 301.5 163.4C301.9 162.8 302.1 161.4 302.1 159.1V121.5C302.1 119.3 301.9 118 301.5 117.4C301.1 116.8 300.4 116.5 299.2 116.5H297V113.6H343.6L343.8 133.3H342.1C340.5 127.8 338.1 123.7 334.9 120.8C331.7 117.9 327.6 116.5 322.9 116.5C321.2 116.5 320 116.8 319.4 117.5C318.8 118.2 317.9 119.6 317.9 121.7V138H318.7C322.3 138 325 137.1 327 135.2C328.9 133.3 329.9 130.6 330 127H332.3V152.3H330C329.8 148.5 328.8 145.7 326.8 143.9C324.8 142.1 321.9 141.1 317.8 141V158.1C317.8 160.9 318.1 162.7 318.6 163.3C319.1 163.9 321.4 164.4 324.3 164.4C329 164.4 332.8 163 335.9 160.2C339 157.4 341.3 153.2 342.9 147.5L344.7 147.4L344.1 167.2H297Z" class="svg-logo-text" style="fill: rgb(27, 92, 52) !important;"/> <path d="M349.5 167.1V164.2H351.5C352.7 164.2 353.6 163.9 354 163.3C354.4 162.7 354.6 161.3 354.6 159V121.4C354.6 119.2 354.4 117.9 354 117.3C353.6 116.7 352.9 116.4 351.7 116.4H349.4V113.5H396L396.2 133.2H394.5C392.9 127.7 390.5 123.6 387.3 120.7C384.1 117.8 380 116.4 375.3 116.4C373.6 116.4 372.4 116.7 371.8 117.4C371.2 118.1 370.3 119.5 370.3 121.6V137.7H371.1C374.7 137.7 377.4 136.8 379.4 134.9C381.3 133 382.3 130.3 382.4 126.7H384.7V152H382.4C382.2 148.2 381.2 145.4 379.2 143.6C377.2 141.8 374.3 140.8 370.2 140.7V158C370.2 160.8 370.5 162.6 371 163.2C371.5 163.8 373.8 164.3 376.7 164.3C381.4 164.3 385.2 162.9 388.3 160.1C391.4 157.3 393.7 153.1 395.3 147.4L397.1 147.3L396.5 167.1H349.5Z" class="svg-logo-text" style="fill: rgb(27, 92, 52) !important;"/> <path fill-rule="evenodd" clip-rule="evenodd" d="M398.8 182.6H1.4C0.6 182.6 0 184.6 0 187C0 189.4 0.6 191.4 1.4 191.4H398.8C399.6 191.4 400.2 189.4 400.2 187C400.2 184.6 399.5 182.6 398.8 182.6Z" fill="#38AC4B" style="fill: rgb(56, 172, 75) !important;"/> <path d="M204.1 158C204.1 160.7 203.9 162.4 203.3 163.1C202.8 163.8 201.7 164.2 200.2 164.2H197.6V167.3H230.4V164.2H227.8C226.2 164.2 225.2 163.8 224.7 163.1C224.2 162.4 223.9 160.7 223.9 158V131C217.2 130.7 210.8 129.5 204.1 128.2V158Z" class="svg-logo-text" style="fill: rgb(27, 92, 52) !important;"/> </g> <defs style="fill: none !important;"> <clipPath id="clip0_3964_18534" style="fill: none !important;"> <rect width="421.1" height="191.4" class="svg-logo-text" style="fill: rgb(27, 92, 52) !important;"/> </clipPath> </defs> </svg>